# xmcd
#
# Track frame offsets:
# 150
# 15022
# 28170
# 40055
# 53125
# 67237
# 81567
# 94775
# 107012
# 119677
# 131595
# 144732
# 157217
# 170437
# 184202
#
# Disc length: 2638 seconds
#
#
# Revision: 0
# Processed by: cddbd v1.5.1PL0 Copyright (c) Steve Scherf et al.
# Submitted via: FreeRIP 2.92 
#
DISCID=d70a4c0f
DTITLE=T-Bone Walker - Jazz and Blues
DYEAR=1900
DGENRE=
TTITLE0=I Got A Break Baby
TTITLE1=Mean Old World
TTITLE2=Low Down Dirty Shame Blues
TTITLE3=My Baby Left Me
TTITLE4=Come Back To Me Baby
TTITLE5=She Is Going To Ruin Me
TTITLE6=I Can´t Stand Being Away From You
TTITLE7=No Worry Blues
TTITLE8=Don´t Leave Me Baby
TTITLE9=Bobby Sox Blues
TTITLE10=I´m Gonna Find My Baby
TTITLE11=I´m In An Awful Mood
TTITLE12=It´s A Low Down Dirty Real
TTITLE13=Don´t Give Me The Runaround
TTITLE14=Hard Pain Blues
EXTD=
EXTT0=1942
EXTT1=1942
EXTT2=1944
EXTT3=
EXTT4=
EXTT5=
EXTT6=
EXTT7=1946
EXTT8=1946
EXTT9=1946
EXTT10=1946
EXTT11=1946
EXTT12=1946
EXTT13=1946
EXTT14=1946
PLAYORDER=
